<svg xmlns="http://www.w3.org/2000/svg" width="32" height="32" viewBox="0 0 32 32" fill="none">
<path opacity="0.9" d="M18.8374 21.8781C18.6315 23.0786 18.3615 24.1754 18.0346 25.1272C17.3454 27.1313 16.5154 28.1523 16 28.1523C15.4846 28.1523 14.6546 27.1313 13.9662 25.1272C13.6385 24.1762 13.3676 23.0786 13.1626 21.8781L13.6978 21.9127L14.3458 21.944L14.8917 21.9621C15.8125 21.9865 16.7338 21.9804 17.6542 21.944L18.3014 21.9127L18.8374 21.8781ZM4.28407 19.7225C5.32153 20.2923 6.62165 20.7641 8.1128 21.1272L8.64389 21.2507L9.18979 21.3635L9.56196 21.4343C9.81227 21.4804 10.0667 21.5232 10.3244 21.5628L10.6085 21.6039L10.6497 21.8888L10.7122 22.2733C10.755 22.5269 10.8012 22.7773 10.8497 23.0234L10.9634 23.5694L11.086 24.1004L11.1519 24.3664C11.4664 25.5916 11.8559 26.6809 12.3145 27.5932C10.455 27.0096 8.75948 25.9953 7.36592 24.6328C5.97235 23.2703 4.9201 21.5981 4.29477 19.7521L4.28407 19.7225ZM27.7151 19.7225C27.0929 21.5747 26.0411 23.2533 24.6458 24.6211C23.2505 25.989 21.5513 27.0071 19.6871 27.5924C20.177 26.6151 20.5895 25.4351 20.914 24.1013L21.0375 23.5694L21.1503 23.0234L21.2211 22.6513C21.2672 22.401 21.31 22.1465 21.3495 21.8888L21.3907 21.6039L21.6756 21.5628L22.0601 21.501C22.3137 21.4582 22.564 21.4121 22.8102 21.3635L23.3561 21.2499L23.8872 21.1272L24.1532 21.0613C25.4706 20.7237 26.6299 20.2989 27.5809 19.795L27.7151 19.7225ZM16 12.9197C17.0819 12.9197 18.1416 12.9666 19.1577 13.0556C19.2488 14.1056 19.2941 15.1592 19.2935 16.2132C19.2935 17.2952 19.2466 18.3549 19.1577 19.3709C18.1076 19.462 17.054 19.5074 16 19.5068C14.9181 19.5068 13.8584 19.4598 12.8423 19.3709C12.7512 18.3208 12.7059 17.2673 12.7065 16.2132C12.7065 15.1313 12.7534 14.0716 12.8423 13.0556C13.8924 12.9644 14.946 12.9191 16 12.9197ZM10.3351 13.3759L10.3005 13.9111L10.2692 14.5591L10.2511 15.105C10.2268 16.0257 10.2328 16.9471 10.2692 17.8674L10.3005 18.5146L10.3351 19.0506C9.13462 18.8448 8.03788 18.5747 7.08604 18.2478C5.08193 17.5587 4.06093 16.7287 4.06093 16.2132C4.06093 15.6978 5.08193 14.8678 7.08604 14.1795C8.03705 13.8518 9.13462 13.5809 10.3351 13.3759ZM21.6649 13.3759C22.8654 13.5817 23.9621 13.8518 24.914 14.1787C26.9181 14.8678 27.9391 15.6978 27.9391 16.2132C27.9391 16.7287 26.9181 17.5586 24.914 18.247C23.9629 18.5747 22.8654 18.8456 21.6649 19.0506L21.6995 18.5154L21.7308 17.8674L21.7522 17.212L21.762 16.5484L21.7637 16.2132L21.7604 15.6566C21.7554 15.2907 21.7455 14.9248 21.7308 14.5591L21.6995 13.9119L21.6649 13.3759ZM12.8818 3.84848C12.135 4.97075 11.529 6.50554 11.086 8.32604L10.9625 8.85713L10.8497 9.40303L10.7789 9.7752C10.7328 10.0255 10.69 10.2799 10.6505 10.5377L10.6085 10.8217L10.3244 10.8629L9.93989 10.9255C9.68629 10.9683 9.43598 11.0144 9.18979 11.063L8.64389 11.1766L8.1128 11.2993L7.84685 11.3652C6.33018 11.7538 5.02264 12.2585 4 12.8662C4.52616 10.7239 5.61547 8.76133 7.1551 7.1816C8.69473 5.60187 10.6287 4.46247 12.7567 3.88142L12.8818 3.84848ZM19.1173 3.84766C21.2727 4.41163 23.2358 5.54721 24.7993 7.13445C26.3628 8.7217 27.4686 10.7017 28 12.8654C26.9189 12.2231 25.5175 11.6962 23.8872 11.2993L23.3561 11.1758L22.8102 11.063L22.438 10.9922C22.1845 10.946 21.9303 10.9032 21.6756 10.8637L21.3907 10.8217L21.3495 10.5377L21.2878 10.1531C21.2453 9.90249 21.1995 9.65243 21.1503 9.40303L21.0366 8.85713L20.914 8.32604L20.8481 8.06009C20.4199 6.39191 19.8526 4.97652 19.1626 3.916L19.1173 3.84766ZM16 4.27417C16.5154 4.27417 17.3454 5.29517 18.0338 7.29928C18.3615 8.25029 18.6324 9.34786 18.8374 10.5484L18.3022 10.5138L17.6542 10.4825L16.9988 10.4611L16.3351 10.4512L16 10.4496L15.4434 10.4528C15.0729 10.4578 14.7073 10.4677 14.3458 10.4825L13.6986 10.5138L13.1626 10.5484C13.3685 9.34786 13.6385 8.25111 13.9654 7.29928C14.6546 5.29517 15.4846 4.27417 16 4.27417Z" fill="#16B063"/>
</svg>