<svg width="20" height="20" viewBox="0 0 20 20" fill="none" xmlns="http://www.w3.org/2000/svg">
<path fill-rule="evenodd" clip-rule="evenodd" d="M6.8 10.72V14.08C6.8 16.88 7.92 18 10.72 18H14.08C16.88 18 18 16.88 18 14.08V10.72C18 7.91999 16.88 6.79999 14.08 6.79999H10.72C7.92 6.79999 6.8 7.91999 6.8 10.72Z" stroke="#8A8D94" stroke-width="1.5" stroke-linecap="round" stroke-linejoin="round"/>
<path fill-rule="evenodd" clip-rule="evenodd" d="M2.00001 5.92V9.28C2.00001 12.08 3.12001 13.2 5.92001 13.2H6.80001V10.72C6.80001 7.92 7.92001 6.8 10.72 6.8H13.2V5.92C13.2 3.12 12.08 2 9.28001 2H5.92001C3.12001 2 2.00001 3.12 2.00001 5.92Z" stroke="#8A8D94" stroke-width="1.5" stroke-linecap="round" stroke-linejoin="round" stroke-dasharray="1 2"/>
</svg>
