<?xml version="1.0" standalone="no"?><!DOCTYPE svg PUBLIC "-//W3C//DTD SVG 1.1//EN" "http://www.w3.org/Graphics/SVG/1.1/DTD/svg11.dtd"><svg t="1705570565187" class="icon" viewBox="0 0 1621 1024" version="1.1" xmlns="http://www.w3.org/2000/svg" p-id="7452" xmlns:xlink="http://www.w3.org/1999/xlink" width="316.6015625" height="200"><path d="M1486.015831 862.564644V160.759894a70.923483 70.923483 0 0 0-71.598944-67.546174H209.39314a70.923483 70.923483 0 0 0-74.300792 67.546174v701.80475a70.923483 70.923483 0 0 0 74.300792 71.598944h1202.3219a70.923483 70.923483 0 0 0 74.300791-71.598944z" fill="#19366C" p-id="7453"></path><path d="M810.55409 781.509235a364.74934 364.74934 0 1 0-120.23219-270.184697 364.073879 364.073879 0 0 0 120.23219 270.184697z" fill="#E1AC43" p-id="7454"></path><path d="M1375.240106 714.638522a11.48285 11.48285 0 1 1 11.482849 12.158312 11.48285 11.48285 0 0 1-11.482849-12.158312z m11.482849 9.456465a10.131926 10.131926 0 0 0 8.781003-9.456465 8.781003 8.781003 0 0 0-8.781003-8.781002 9.456464 9.456464 0 0 0-9.456464 8.105541 10.131926 10.131926 0 0 0 9.456464 10.131926z m0-4.052771v-10.807388h7.430079V717.340369v-4.05277 4.05277z m0-6.079155z" fill="#E1AC43" p-id="7455"></path><path d="M931.461741 472.823219a379.609499 379.609499 0 0 0-6.079155-38.501319h-223.577837c0-12.833773 6.754617-25.667546 10.807388-38.50132h202.638523c-4.728232-12.833773-9.456464-26.343008-14.860159-38.501319h-172.918205c6.754617-13.509235 14.184697-27.01847 21.614775-39.176781H878.100264a303.282322 303.282322 0 0 0-27.01847-38.501319h-74.300791a491.060686 491.060686 0 0 1 33.773087-39.176781 365.424802 365.424802 0 1 0 0 540.369393 398.522427 398.522427 0 0 0 37.150395-38.501319H776.781003a386.364116 386.364116 0 0 1-26.343008-38.501319H878.100264c7.430079-12.158311 14.860158-24.992084 21.614776-38.50132h-172.242744a300.580475 300.580475 0 0 1-14.860159-38.501319h202.638523c4.05277-12.833773 7.430079-25.667546 10.807387-39.176781a379.609499 379.609499 0 0 0 6.079156-38.501319A373.530343 373.530343 0 0 0 931.461741 472.823219z" fill="#C12631" p-id="7456"></path><path d="M1375.240106 595.757256a11.48285 11.48285 0 0 1 22.965699 0 12.158311 12.158311 0 0 1-11.48285 12.158311 11.48285 11.48285 0 0 1-11.482849-10.807388z m11.482849 9.456464a10.131926 10.131926 0 0 0 8.781003-9.456464 8.781003 8.781003 0 0 0-8.781003-8.781003 9.456464 9.456464 0 0 0-9.456464 8.105541 9.456464 9.456464 0 0 0 9.456464 12.833773z m0-4.05277v-9.456465h7.430079v5.403694-4.05277 4.05277z m0-6.079156z" fill="#FFFFFF" p-id="7457"></path><path d="M689.646438 616.69657a118.881266 118.881266 0 0 1-30.395778 4.728232 28.369393 28.369393 0 0 1-29.720317-27.01847 18.237467 18.237467 0 0 1 0-6.079155 91.862797 91.862797 0 0 1 0-13.509235v-26.343008l17.562005-103.345646h37.825858l-4.728232 22.965699h24.316622l-6.079155 37.825857h-23.641161l-10.807388 61.467019v6.079155c0 8.105541 4.05277 11.48285 13.509235 11.48285h12.158311l-4.728232 33.097625zM810.55409 614.670185a118.881266 118.881266 0 0 1-40.527705 6.754617 60.791557 60.791557 0 0 1-67.546174-52.686016 54.712401 54.712401 0 0 1 0-14.860158c0-51.335092 29.044855-89.836412 67.546174-89.836412a49.984169 49.984169 0 0 1 53.361478 47.282322v7.430079a170.216359 170.216359 0 0 1-5.403694 37.150396H743.007916v4.728232q0 26.343008 34.448548 26.343008a97.266491 97.266491 0 0 0 41.878628-9.456464z m-23.641161-89.16095v-7.430079a16.886544 16.886544 0 0 0-15.53562-18.912929c-12.833773 0-21.614776 9.456464-25.667546 26.343008zM386.364116 618.722955h-39.176781l22.965699-142.522427-50.65963 142.522427h-27.01847v-141.846966l-24.992084 141.846966h-40.527705l31.07124-185.751979h56.063325v114.828496l37.825857-114.828496h62.817942z m95.240106-67.546174H472.823219c-22.290237 0-33.773087 8.781003-33.773087 22.965699a14.184697 14.184697 0 0 0 12.158311 15.53562c19.588391 0 27.01847-16.211082 27.01847-38.501319z m31.746701 67.546174h-34.448548v-15.53562a45.931398 45.931398 0 0 1-41.878628 18.237467 37.150396 37.150396 0 0 1-31.746702-39.852243 62.14248 62.14248 0 0 1 0-20.939314c6.754617-23.641161 29.720317-37.825858 67.546174-38.501319h16.886544a27.01847 27.01847 0 0 0 0-10.131926c0-10.131926-8.105541-13.509235-27.01847-13.509235a178.997361 178.997361 0 0 0-32.422164 4.728232h-5.403694L428.242744 472.823219A151.978892 151.978892 0 0 1 472.823219 464.042216c34.448549 0 53.361478 14.860158 53.361478 43.905014a113.477573 113.477573 0 0 1 0 30.395778l-8.105541 53.361477v27.01847zM1002.385224 472.823219a81.055409 81.055409 0 0 1 35.124011 10.131926l6.754617-41.203166h-9.456464l-16.886544-3.377309a73.62533 73.62533 0 0 0-17.562005 0 67.546174 67.546174 0 0 0-43.229551 8.105541 87.810026 87.810026 0 0 0-22.9657 18.912929h-4.728232l-40.527704 29.720316V479.577836h-42.55409l-23.641161 149.277045h39.176781L878.100264 540.369393a170.891821 170.891821 0 0 1 8.781002-14.860158 21.614776 21.614776 0 0 1 21.614776-9.456465v29.044855a67.546174 67.546174 0 0 0 67.546174 79.704486 122.258575 122.258575 0 0 0 37.150396-7.430079l6.754618-42.55409a72.274406 72.274406 0 0 1-33.097626 9.456464c-22.965699 0-37.150396-16.211082-37.150396-45.255936 0-39.852243 20.263852-67.546174 50.659631-67.546174z m334.353562-36.474934l-8.781002 53.361478a38.501319 38.501319 0 0 0-35.799473-20.263853 59.440633 59.440633 0 0 0-53.361477 33.773087L1215.831135 484.98153V472.823219h-42.55409L1148.28496 618.722955h39.852243L1203.672823 540.369393l12.158312-16.886543a20.263852 20.263852 0 0 1 16.886543-9.456465 142.522427 142.522427 0 0 0-6.754617 44.580475c0 37.825858 20.263852 62.817942 48.633245 62.817942a46.60686 46.60686 0 0 0 37.150396-13.509235v14.184697H1350.923483l29.720316-185.751979z m-47.957783 149.952507c-13.509235 0-19.588391-9.456464-19.588391-29.720317s11.48285-50.659631 30.395779-50.659631 20.939314 10.807388 20.939313 30.395779-12.833773 46.60686-31.746701 46.60686z m-182.374671-31.746702h-8.10554c-22.290237 0-33.773087 8.781003-33.773088 22.965699a14.184697 14.184697 0 0 0 12.833774 15.53562c18.912929 0 26.343008-16.211082 26.343007-38.501319z m31.746702 67.546174h-33.773087v-18.912929a45.931398 45.931398 0 0 1-41.878628 18.237467 38.501319 38.501319 0 0 1-36.474934-39.852243c0-35.799472 27.01847-58.08971 67.546174-58.089709h17.562006v-11.48285c0-10.131926-8.105541-12.833773-27.01847-12.833773a138.469657 138.469657 0 0 0-33.097625 4.05277h-5.403694l5.403694-33.773087a135.092348 135.092348 0 0 1 45.931398-8.105541c34.448549 0 53.361478 14.860158 53.361478 44.580475A105.372032 105.372032 0 0 1 1148.28496 540.369393l-8.10554 53.361478v22.290237z m-540.369393-118.205805a219.525066 219.525066 0 0 1 29.720317 0l6.079155-35.12401a319.493404 319.493404 0 0 0-35.799472 0c-43.905013 0-58.765172 23.641161-58.765171 51.335092a43.229551 43.229551 0 0 0 29.044855 41.203166c16.211082 7.430079 19.588391 8.781003 19.58839 15.53562s-8.781003 14.860158-24.316623 14.860158a122.934037 122.934037 0 0 1-35.12401-5.403693l-4.728232 34.448548H564.010554c43.229551 0 62.14248-16.211082 62.14248-49.984168a41.203166 41.203166 0 0 0-30.395778-41.878628c-16.211082-7.430079-18.237467-8.781003-18.237467-15.535621s6.754617-12.833773 19.58839-12.833773z" fill="#19366C" p-id="7458"></path><path d="M1055.07124 427.567282l-6.754617 39.852243a79.704485 79.704485 0 0 0-35.124011-8.781003c-29.720317 0-50.659631 28.369393-50.65963 67.546175 0 27.693931 14.184697 44.580475 37.150395 44.580475a67.546174 67.546174 0 0 0 33.773087-9.456465l-7.430079 46.60686a122.258575 122.258575 0 0 1-35.12401 4.728232c-41.878628 0-67.546174-29.720317-67.546174-79.704485 0-67.546174 35.799472-112.802111 88.485488-112.802111h17.562005l16.886543 4.728232h9.456465z m-126.986807 26.343008h-4.052771c-12.833773 0-20.263852 6.754617-32.422163 24.992085l3.377308-22.9657h-36.474934L834.870712 607.915567h39.176781c14.860158-91.862797 18.237467-108.073879 37.150396-108.073878a142.522427 142.522427 0 0 1 14.860158-43.229552z m-228.306069 149.952507a84.432718 84.432718 0 0 1-29.044855 4.05277 29.044855 29.044855 0 0 1-31.746702-25.667546 22.965699 22.965699 0 0 1 0-6.754617 52.686016 52.686016 0 0 1 0-14.184697v-26.343008l17.562006-102.670184h39.176781l-4.728233 22.290237h20.263853l-5.403694 37.825857h-20.263852l-10.807388 62.817942v6.079156c0 8.105541 4.728232 11.48285 13.509235 11.48285h10.807387l1.350924 35.12401zM547.124011 503.894459a43.905013 43.905013 0 0 0 30.395778 41.878628c16.211082 7.430079 18.237467 10.131926 18.237467 16.886544s-6.754617 13.509235-22.965699 13.509234A104.021108 104.021108 0 0 1 540.369393 570.08971L532.263852 607.915567H572.116095c41.878628 0 60.791557-15.53562 60.791557-49.984169A41.203166 41.203166 0 0 0 607.915567 516.728232c-16.886544-6.754617-18.912929-9.456464-18.912928-15.53562s6.079156-12.833773 18.912928-12.833773a202.638522 202.638522 0 0 1 29.044855 0l5.403694-35.124011a295.852243 295.852243 0 0 0-34.448549 0c-44.580475 0-60.116095 22.965699-60.116095 50.659631zM1357.6781 607.915567h-37.825857v-15.53562A47.957784 47.957784 0 0 1 1283.377309 607.915567c-29.044855 0-47.957784-24.316623-47.957784-62.14248 0-50.659631 29.044855-92.538259 64.168866-92.538259a43.229551 43.229551 0 0 1 37.825857 20.939314l13.509235-52.686015h39.176781L1357.6781 607.915567z m-58.765171-35.799472c18.912929 0 31.746702-20.939314 31.746702-51.335092 0-18.237467-7.430079-29.044855-20.939314-29.044855s-31.07124 20.939314-31.07124 50.65963 4.728232 29.044855 20.263852 29.044855z m-478.226913 31.746702a121.583113 121.583113 0 0 1-40.527705 6.754617 60.116095 60.116095 0 0 1-67.546174-67.546174c0-52.010554 29.044855-89.836412 67.546174-89.836412a49.984169 49.984169 0 0 1 53.361478 47.282322v7.43008a223.577836 223.577836 0 0 1-4.728232 37.150395h-77.002639v4.728233c0 16.886544 11.48285 26.343008 35.124011 26.343007a105.372032 105.372032 0 0 0 40.527704-10.131926z m-22.290238-89.16095v-8.781003a16.886544 16.886544 0 0 0-14.860158-18.912928c-12.833773 0-21.614776 10.131926-25.667546 26.343007zM397.846966 607.915567h-41.203167l22.9657-142.522427L330.300792 607.915567h-27.01847V466.068602L276.263852 607.915567h-37.825857L270.184697 421.488127h56.738786v114.828496l38.501319-114.828496h61.467019L396.496042 607.915567z m97.941952-67.546174h-8.781002c-22.290237 0-33.773087 8.105541-33.773088 22.965699a14.860158 14.860158 0 0 0 12.833774 16.211082c16.886544 0 27.01847-16.211082 28.369393-38.501319z m29.044855 67.546174h-34.448549v-16.211082a51.335092 51.335092 0 0 1-41.878628 16.211082 36.474934 36.474934 0 0 1-35.799472-37.150395v-2.026386c0-36.474934 24.992084-57.414248 67.546174-57.414248h15.53562a23.641161 23.641161 0 0 0 0-9.456464c0-10.131926-6.754617-13.509235-25.667546-13.509235a106.722955 106.722955 0 0 0-32.422164 4.05277H432.295515l5.403693-33.097625a141.846966 141.846966 0 0 1 47.282322-8.105541c34.448549 0 53.361478 14.860158 53.361478 43.229552a155.356201 155.356201 0 0 1 0 30.395778l-8.105541 53.361478V607.915567z m595.757256-67.546174h-9.456464c-22.290237 0-33.773087 8.105541-33.773087 22.965699a15.53562 15.53562 0 0 0 13.509234 16.211082c15.53562 0 26.343008-16.211082 28.369394-38.501319zM1148.28496 607.915567h-33.773087v-16.211082a52.686016 52.686016 0 0 1-41.878628 17.562006 37.150396 37.150396 0 0 1-37.150395-37.150396 7.430079 7.430079 0 0 0 0-3.377309c0-37.150396 26.343008-58.08971 67.546174-58.089709h15.53562a15.53562 15.53562 0 0 0 0-9.456465c0-10.131926-6.079156-13.509235-24.992085-13.509235a112.126649 112.126649 0 0 0-33.097625 4.728232h-9.456464l6.079155-33.773087a141.846966 141.846966 0 0 1 47.282322-8.10554c34.448549 0 53.361478 14.860158 53.361478 43.905013a148.601583 148.601583 0 0 1 0 29.720316l-8.105541 53.361478V607.915567z m106.722956-151.978892h-3.377309c-12.833773 0-20.939314 6.754617-33.097625 24.316623l4.05277-22.965699h-39.176781L1159.76781 607.915567h40.527705c13.509235-92.538259 17.562005-108.073879 36.474934-108.073878a168.189974 168.189974 0 0 1 14.860158-43.905014z" fill="#FFFFFF" p-id="7459"></path></svg>