<svg width="32" height="32" viewBox="0 0 32 32" fill="none" xmlns="http://www.w3.org/2000/svg">
<g clip-path="url(#clip0_3884_438)">
<path d="M30.2583 11.0001C30.4576 11.0001 30.5573 11.0001 30.6238 10.9565C30.6809 10.9191 30.7234 10.8575 30.7381 10.7909C30.7552 10.7132 30.7208 10.6224 30.6519 10.441C28.9475 5.95121 25.2386 2.44834 20.6181 1.02514C20.3059 0.928965 20.1498 0.880878 20.0596 0.919755C19.9804 0.953886 19.9241 1.02163 19.9051 1.10572C19.8834 1.20151 19.9646 1.35629 20.1269 1.66584C20.5855 2.54038 20.9848 3.54245 21.3274 4.61154C21.9091 6.42643 22.3502 8.50606 22.633 10.6263C22.6508 10.7598 22.6597 10.8266 22.6909 10.876C22.7186 10.9198 22.7577 10.954 22.8048 10.9756C22.8578 11.0001 22.9246 11.0001 23.058 11.0001H30.2583Z" fill="#23D57C"/>
<path d="M0.333496 16.0001C0.333496 15.0955 0.410158 14.2089 0.55734 13.3462C0.577865 13.226 0.588128 13.1658 0.61977 13.1185C0.647209 13.0775 0.687502 13.0435 0.732555 13.0233C0.78451 13.0001 0.847107 13.0001 0.9723 13.0001H8.65759C8.81768 13.0001 8.89773 13.0001 8.95664 13.0316C9.00877 13.0594 9.04944 13.1029 9.07383 13.1567C9.1014 13.2176 9.09611 13.2982 9.08553 13.4596C9.02902 14.3213 9.00016 15.1732 9.00016 16.0001C9.00016 16.8269 9.02902 17.6789 9.08553 18.5406C9.09611 18.702 9.1014 18.7826 9.07383 18.8435C9.04944 18.8973 9.00877 18.9407 8.95664 18.9686C8.89773 19.0001 8.81768 19.0001 8.65759 19.0001H0.9723C0.847107 19.0001 0.78451 19.0001 0.732555 18.9769C0.687502 18.9567 0.647209 18.9227 0.61977 18.8817C0.588128 18.8344 0.577865 18.7742 0.55734 18.6539C0.410158 17.7913 0.333496 16.9047 0.333496 16.0001Z" fill="#23D57C"/>
<path d="M11.8734 30.3343C12.0357 30.6439 12.1169 30.7987 12.0952 30.8944C12.0761 30.9785 12.0198 31.0463 11.9407 31.0804C11.8505 31.1193 11.6944 31.0712 11.3821 30.975C6.76167 29.5518 3.05285 26.0489 1.34843 21.5592C1.27953 21.3777 1.24509 21.287 1.26224 21.2093C1.27695 21.1427 1.31943 21.0811 1.37648 21.0437C1.44305 21.0001 1.54272 21.0001 1.74206 21.0001H8.94228C9.07574 21.0001 9.14247 21.0001 9.19555 21.0245C9.24262 21.0462 9.28169 21.0804 9.30939 21.1242C9.34063 21.1736 9.34954 21.2404 9.36735 21.3739C9.65012 23.4941 10.0912 25.5737 10.6729 27.3886C11.0155 28.4577 11.4147 29.4598 11.8734 30.3343Z" fill="#23D57C"/>
<path d="M22.9327 18.0042C22.9316 18.0212 22.944 18.0361 22.9609 18.0383L23.0333 18.0477C23.0986 18.0561 23.1313 18.0604 23.162 18.0572C23.1902 18.0543 23.215 18.0478 23.241 18.0365C23.2694 18.0242 23.2975 18.0033 23.3537 17.9614C23.644 17.7451 23.9459 17.5613 24.287 17.4268C24.3135 17.4163 24.3268 17.411 24.3375 17.4057C24.3477 17.4006 24.3556 17.396 24.3651 17.3897C24.3751 17.3831 24.385 17.3751 24.4049 17.3592L24.4822 17.2974C24.5163 17.2701 24.5333 17.2565 24.5471 17.2415C24.5601 17.2273 24.5696 17.2146 24.5795 17.1981C24.59 17.1806 24.5992 17.1582 24.6175 17.1132C25.1148 15.8951 26.2527 15.0001 27.6002 15.0001C28.9394 15.0001 30.0889 15.8584 30.5723 17.0813C30.5819 17.1056 30.5867 17.1178 30.5916 17.1276C30.5962 17.137 30.6004 17.1443 30.606 17.1531C30.6119 17.1624 30.619 17.1716 30.6331 17.1902L30.6984 17.2759C30.7262 17.3124 30.7401 17.3307 30.7557 17.3454C30.7704 17.3593 30.7837 17.3695 30.801 17.38C30.8193 17.3911 30.8429 17.4007 30.8899 17.4197C30.9099 17.4278 30.9298 17.436 30.9495 17.4444C31.1926 17.5477 31.3142 17.5993 31.3914 17.5861C31.4643 17.5736 31.5163 17.5417 31.5604 17.4824C31.6071 17.4195 31.6148 17.3058 31.6303 17.0784C31.6545 16.7221 31.6668 16.3625 31.6668 16.0001C31.6668 15.0955 31.5902 14.2089 31.443 13.3462C31.4225 13.226 31.4122 13.1658 31.3806 13.1185C31.3531 13.0775 31.3128 13.0435 31.2678 13.0233C31.2158 13.0001 31.1532 13.0001 31.028 13.0001H23.3427C23.1826 13.0001 23.1026 13.0001 23.0437 13.0316C22.9916 13.0594 22.9509 13.1029 22.9265 13.1567C22.8989 13.2176 22.9042 13.2982 22.9148 13.4596C22.9713 14.3213 23.0002 15.1732 23.0002 16.0001C23.0002 16.6337 22.9774 17.3062 22.9327 18.0042Z" fill="#23D57C"/>
<path d="M1.74206 11.0001C1.54272 11.0001 1.44305 11.0001 1.37648 10.9565C1.31943 10.9191 1.27695 10.8575 1.26224 10.7909C1.24509 10.7132 1.27953 10.6224 1.34843 10.441C3.05285 5.95123 6.76167 2.44837 11.3821 1.02516C11.6944 0.928982 11.8505 0.880894 11.9407 0.919772C12.0198 0.953902 12.0761 1.02165 12.0952 1.10574C12.1169 1.20153 12.0357 1.3563 11.8734 1.66585C11.4147 2.54039 11.0155 3.54246 10.6729 4.61154C10.0912 6.42643 9.65012 8.50606 9.36735 10.6263C9.34954 10.7598 9.34063 10.8266 9.30939 10.876C9.28169 10.9198 9.24262 10.954 9.19555 10.9756C9.14247 11.0001 9.07574 11.0001 8.94228 11.0001H1.74206Z" fill="#23D57C"/>
<path d="M16 0.333252C16.454 0.333252 17.0271 0.620538 17.6813 1.5021C18.3238 2.3678 18.9183 3.648 19.4227 5.22181C19.9321 6.81108 20.3301 8.63758 20.599 10.5184C20.6224 10.6827 20.6342 10.7649 20.6087 10.8301C20.5865 10.887 20.5445 10.9355 20.4914 10.9655C20.4303 10.9999 20.3465 10.9999 20.1788 10.9999H11.8212C11.6535 10.9999 11.5696 10.9999 11.5086 10.9655C11.4555 10.9355 11.4134 10.887 11.3913 10.8301C11.3658 10.7649 11.3776 10.6827 11.401 10.5184C11.6698 8.63758 12.0679 6.81107 12.5773 5.2218C13.0817 3.648 13.6762 2.36779 14.3186 1.5021C14.9728 0.620536 15.5459 0.333252 16 0.333252Z" fill="#16B063"/>
<path d="M16 31.6666C15.5356 31.6666 14.9725 31.3789 14.3186 30.4977C13.6762 29.632 13.0817 28.3518 12.5773 26.778C12.0679 25.1888 11.6698 23.3623 11.401 21.4815C11.3776 21.3171 11.3658 21.235 11.3913 21.1697C11.4134 21.1128 11.4555 21.0644 11.5086 21.0344C11.5696 20.9999 11.6535 20.9999 11.8212 20.9999H18.592C18.736 20.9999 18.8399 21.1381 18.8084 21.2786C18.806 21.2893 18.803 21.2996 18.7989 21.3097C18.7059 21.5387 18.5194 21.7222 18.2859 21.8088C16.5697 22.4423 14.9965 23.4142 14.9965 25.4999C14.9965 27.5812 16.5681 28.5552 18.2807 29.19L18.2831 29.1909C18.3109 29.2011 18.3227 29.2335 18.3094 29.2601C18.1001 29.6801 17.8831 30.0564 17.6597 30.3821C16.9829 31.3688 16.4236 31.6666 16 31.6666Z" fill="#16B063"/>
<path d="M20.6942 18.4971C20.7766 18.4469 20.8177 18.4218 20.8435 18.3934C20.8678 18.3667 20.8834 18.3412 20.896 18.3073C20.9094 18.2714 20.9124 18.229 20.9185 18.1443C20.9724 17.393 21 16.6718 21 15.9999C21 15.1517 20.9679 14.2763 20.9055 13.3925C20.8958 13.2554 20.891 13.1869 20.8606 13.1339C20.834 13.0876 20.7933 13.0497 20.7453 13.0265C20.6903 12.9999 20.6209 12.9999 20.4821 12.9999H11.5179C11.3791 12.9999 11.3097 12.9999 11.2547 13.0265C11.2067 13.0497 11.166 13.0876 11.1394 13.1339C11.109 13.1869 11.1042 13.2554 11.0945 13.3925C11.0321 14.2763 11 15.1517 11 15.9999C11 16.8482 11.0321 17.7236 11.0945 18.6073C11.1042 18.7444 11.109 18.8129 11.1394 18.8659C11.166 18.9122 11.2067 18.9501 11.2547 18.9734C11.3097 18.9999 11.3791 18.9999 11.5179 18.9999H19.8757C19.9392 18.9999 19.971 18.9999 19.9995 18.9936C20.0263 18.9877 20.0476 18.9795 20.0717 18.9661C20.0971 18.9519 20.1234 18.9286 20.176 18.8819C20.3366 18.739 20.5095 18.6098 20.6942 18.4971Z" fill="#16B063"/>
<path d="M21.1305 20.8374C21.5437 19.7208 23.123 19.7208 23.5362 20.8374L23.9341 21.9126C24.3032 22.9102 25.0897 23.6967 26.0873 24.0659L27.1625 24.4637C28.2792 24.8769 28.2792 26.4562 27.1625 26.8694L26.0873 27.2673C25.0897 27.6364 24.3032 28.423 23.9341 29.4205L23.5362 30.4958C23.123 31.6124 21.5437 31.6124 21.1305 30.4958L20.7326 29.4205C20.3635 28.423 19.577 27.6364 18.5794 27.2673L17.5041 26.8694C16.3875 26.4562 16.3875 24.8769 17.5041 24.4637L18.5794 24.0659C19.577 23.6967 20.3635 22.9102 20.7326 21.9126L21.1305 20.8374Z" fill="#16B063"/>
<path d="M27.8308 17.451C27.889 17.294 28.111 17.294 28.1692 17.451L28.4282 18.151C28.6717 18.8092 29.1907 19.3282 29.849 19.5718L30.5489 19.8308C30.7059 19.8889 30.7059 20.111 30.5489 20.1691L29.849 20.4281C29.1907 20.6716 28.6717 21.1906 28.4282 21.8489L28.1692 22.5488C28.111 22.7058 27.889 22.7058 27.8308 22.5488L27.5718 21.8489C27.3283 21.1906 26.8093 20.6716 26.151 20.4281L25.4511 20.1691C25.2941 20.111 25.2941 19.8889 25.4511 19.8308L26.151 19.5718C26.8093 19.3282 27.3283 18.8092 27.5718 18.151L27.8308 17.451Z" fill="#16B063"/>
</g>
<defs>
<clipPath id="clip0_3884_438">
<rect width="32" height="32" fill="white"/>
</clipPath>
</defs>
</svg>
